<?xml version="1.0" encoding="UTF-8" standalone="no"?>
<svg width="19px" height="18px" viewBox="0 0 19 18" version="1.1" xmlns="http://www.w3.org/2000/svg" xmlns:xlink="http://www.w3.org/1999/xlink" xmlns:sketch="http://www.bohemiancoding.com/sketch/ns">
    <!-- Generator: Sketch 3.1.1 (8761) - http://www.bohemiancoding.com/sketch -->
    <title>Imported Layers</title>
    <desc>Created with Sketch.</desc>
    <defs></defs>
    <g id="Page-1" stroke="none" stroke-width="1" fill="none" fill-rule="evenodd" sketch:type="MSPage">
        <g id="WIDE-CARD" sketch:type="MSArtboardGroup" transform="translate(-646.000000, -372.000000)" fill="#000000">
            <g id="61-+-Imported-Layers-2-+-sok213-2-+-Bitmap-2" sketch:type="MSLayerGroup" transform="translate(367.000000, 364.000000)">
                <g id="61-+-Imported-Layers-2" transform="translate(279.000000, 4.000000)" sketch:type="MSShapeGroup">
                    <g id="61-+-Imported-Layers">
                        <path d="M13.7249495,5.35551482 C15.0276276,5.35551482 16.2521501,5.8718962 17.172873,6.80960191 C18.0924931,7.74608239 18.5989759,8.99325956 18.5989759,10.3214548 C18.5989759,11.64965 18.0925432,12.8966229 17.1729232,13.832695 L9.79866722,21.3422536 C9.72086247,21.42174 9.61703925,21.4654908 9.50624769,21.4654908 C9.47772263,21.4654908 9.4513031,21.4629382 9.42533476,21.4577821 C9.42342975,21.4573737 9.42152474,21.4570163 9.41956959,21.456659 C9.33695218,21.4412926 9.2625564,21.4018301 9.20390204,21.3418451 L1.82999703,13.8326439 C0.910427111,12.8966229 0.404044525,11.64965 0.404044525,10.3214548 C0.404044525,8.99325956 0.910477243,7.74603134 1.83004716,6.80960191 C2.75071999,5.8718962 3.97534268,5.35551482 5.27832157,5.35551482 C6.58125033,5.35551482 7.80592315,5.8718962 8.72669624,6.80955086 L9.21788885,7.30985116 C9.29308674,7.38642773 9.39510521,7.42951482 9.50148516,7.42951482 C9.60786511,7.42951482 9.70988358,7.38642773 9.78508146,7.30985116 L10.2762239,6.80965296 C11.197348,5.8718962 12.4221712,5.35551482 13.7249495,5.35551482 M13.7249495,4.94710641 C12.3150392,4.94710641 10.9898519,5.50570701 9.99267777,6.52080611 L9.50148516,7.02110641 L9.01029255,6.52080611 C8.01346933,5.50570701 6.68793107,4.94710641 5.27832157,4.94710641 C3.8687622,4.94710641 2.54312368,5.50570701 1.54640073,6.52080611 C-0.51146471,8.61660491 -0.51146471,12.0265599 1.54640073,14.1215418 L8.92030574,21.6306409 C9.04087302,21.7539292 9.19096801,21.8293827 9.34778067,21.8584307 C9.40036906,21.8689983 9.45325825,21.8738992 9.50624769,21.8738992 C9.71484664,21.8738992 9.9237965,21.7928812 10.0826646,21.6306409 L17.4565696,14.1215418 C19.5144852,12.0265599 19.5144852,8.61660491 17.4565195,6.52080611 C16.4597464,5.50570701 15.1346593,4.94710641 13.7249495,4.94710641" id="Imported-Layers"></path>
                    </g>
                </g>
            </g>
        </g>
    </g>
</svg>